<svg width="1374" height="322" viewBox="0 0 1374 322" fill="none" xmlns="http://www.w3.org/2000/svg">
<path d="M73.9827 322C49.9974 322 31.6707 315.143 19.0024 301.428C6.33413 287.713 0 268.333 0 243.289V78.7111C0 53.6667 6.33413 34.287 19.0024 20.5722C31.6707 6.85741 49.9974 0 73.9827 0C97.9679 0 116.295 6.85741 128.963 20.5722C141.631 34.287 147.965 53.6667 147.965 78.7111V243.289C147.965 268.333 141.631 287.713 128.963 301.428C116.295 315.143 97.9679 322 73.9827 322ZM73.9827 277.278C90.8737 277.278 99.3192 266.97 99.3192 246.356V75.5167C99.3192 54.987 90.8737 44.7222 73.9827 44.7222C57.1761 44.7222 48.7728 54.987 48.7728 75.5167V246.356C48.7728 266.97 57.1761 277.278 73.9827 277.278ZM180.776 317.528V4.47222H242.091L289.47 191.794H290.357V4.47222H333.809V317.528H283.642L225.242 88.9333H224.355V317.528H180.776ZM370.167 317.528V4.47222H503.183V49.1944H418.94V131.867H485.955V176.589H418.94V272.806H503.183V317.528H370.167ZM595.408 322C571.761 322 553.899 315.228 541.822 301.683C529.66 288.054 523.579 268.589 523.579 243.289V225.4H569.692V246.867C569.692 267.141 578.137 277.278 595.028 277.278C603.305 277.278 609.555 274.807 613.777 269.867C618.085 265.011 620.238 257.046 620.238 245.972C620.238 232.854 617.282 221.311 611.37 211.344C605.459 201.293 594.522 189.281 578.56 175.311C558.459 157.422 544.44 141.237 536.501 126.756C528.478 112.359 524.466 96.0463 524.466 77.8167C524.466 53.0278 530.674 33.8611 543.089 20.3167C555.503 6.77222 573.535 0 597.182 0C620.576 0 638.227 6.77222 650.135 20.3167C662.128 33.8611 668.124 53.3259 668.124 78.7111V91.6167H622.012V75.5167C622.012 64.7833 619.943 56.9889 615.804 52.1333C611.666 47.1926 605.628 44.7222 597.689 44.7222C581.389 44.7222 573.239 54.6889 573.239 74.6222C573.239 85.9518 576.279 96.5574 582.36 106.439C588.441 116.235 599.462 128.161 615.424 142.217C635.778 160.106 649.798 176.333 657.483 190.9C665.168 205.552 669.011 222.717 669.011 242.394C669.011 268.035 662.719 287.713 650.135 301.428C637.636 315.143 619.394 322 595.408 322ZM697.008 317.528V4.47222H745.781V131.867H798.101V4.47222H846.874V317.528H798.101V176.589H745.781V317.528H697.008ZM870.31 317.528L920.856 4.47222H986.984L1037.53 317.528H988.758L979.89 255.3V256.194H924.403L915.536 317.528H870.31ZM930.231 213.772H974.063L952.4 59.0333H951.513L930.231 213.772ZM1060.97 317.528V4.47222H1135.46C1159.7 4.47222 1177.9 11.0315 1190.06 24.15C1202.13 37.2685 1208.17 56.4778 1208.17 81.7778V240.222C1208.17 265.522 1202.13 284.731 1190.06 297.85C1177.9 310.969 1159.7 317.528 1135.46 317.528H1060.97ZM1109.74 272.806H1134.57C1142.59 272.806 1148.72 270.42 1152.94 265.65C1157.25 260.88 1159.4 253.128 1159.4 242.394V79.6056C1159.4 68.8722 1157.25 61.1204 1152.94 56.35C1148.72 51.5796 1142.59 49.1944 1134.57 49.1944H1109.74V272.806ZM1240.98 317.528V4.47222H1374V49.1944H1289.76V131.867H1356.64V176.589H1289.76V272.806H1374V317.528H1240.98Z" fill="#959595"/>
</svg>
